<?xml version="1.0" encoding="UTF-8"?>
<svg id="Layer_1" data-name="Layer 1" xmlns="http://www.w3.org/2000/svg" viewBox="0 0 792.39 782.08">
  <defs>
    <style>
      .cls-1 {
        fill: #3c94e7;
      }

      .cls-2 {
        fill: #e8e9e3;
      }

      .cls-3 {
        fill: #0b2549;
      }

      .cls-4 {
        fill: #fdc65d;
      }

      .cls-5 {
        fill: #183d66;
      }

      .cls-6 {
        fill: #fefefd;
      }

      .cls-7 {
        fill: #52a6f2;
      }
    </style>
  </defs>
  <path class="cls-4" d="M738.14,38.46c39.04,33,51.41,77.29,53.46,127.04-2.53,147.81,3.69,296.4-1.08,444-.63,19.59.02,35.01-4.45,54.55-16.19,70.79-78.32,116.07-149.97,118.03l-480.03-.05C56.77,777.01-1.8,703.94,1.52,606.58c3.74-144.66-4.83-291.7,0-436.09C4.87,70.19,56.67,6.03,160.02,0l472.03.05c38.83,2.19,76.14,13.09,106.09,38.41Z"/>
  <g>
    <g>
      <polygon class="cls-6" points="614.31 271.04 195.87 271.04 232.7 171.65 641.37 171.65 614.31 271.04"/>
      <path class="cls-6" d="M594.59,114.69c.64,1.3,4.83,6.88,4.83,7.67v26.69l-360.1,1.62c-14.72,4.8-18.6,10.05-24.4,23.96-13.54,32.48-25.82,64.94-37.97,98.32h-14.89l-1.86-192.73c1.18-2.6,4.84-9.38,7.67-11,2.31-1.33,15.52-2.9,18.17-3.13,37.33-3.25,70.53,6.25,108.35,3.68l6.44,2.81,2.69,1.69,40.22,37.47,243.57.17,7.29,2.79Z"/>
      <polygon class="cls-2" points="604.87 299.77 159.15 299.77 159.15 271.13 614.31 271.12 604.87 299.77"/>
    </g>
    <g>
      <path class="cls-5" d="M300.56,50.04c1.33.05,2.67-.03,4,0,3.06.33,9.04,4.77,12,7l6.47,8.06c2.12,1.37,3.84,3.11,5.53,4.94,6.11,6.6,9.22,11.96,17,17,.68.44,1.35,1.67,2,2,1.01.51,1.69,1.55,3.4,1.06,81.73.94,163.98-2.23,245.42,1.62,6.93,1.93,15.93,8.35,19.03,14.96.51,1.09,4.15,10.26,4.15,10.85v31c5.03,3,12.92,1.07,19,1.5,5.08.36,3.07,1.2,4.78,1.91,5.6,2.33,6.65,1.3,10.22,7.09,1.96,3.18,3.6,7.16,4.76,10.74l.24,15.26c-1.78,6.16-6.18,17.24-7,22-1.39-2.16-1.21.98-1.46,2.03-2.32,9.4-5.5,18.5-7.54,27.97-.78,3.61-1.76,7.29-2,11,.05,1.37,1.49.93,2.45,1.04,8.46,1.02,19.1-1.12,27.55-.04,4.28.55,9.53,4.84,12.52,7.98,13.92,14.58,25.94,35.06,39.89,50.11,1.43,2.49,3.07,5.04,3.59,7.91v64c-.93,5.97-5.3,11.79-10,15-4.87,3.32-7.61,4.83-13.6,5.9-2.06.37-9.91-.5-10.44,1.77l1.04,272.33c-.2,1.17-.77,2.06-1,3-.74,2.95-.59,4.51-2,8-2.85,7.07-7.41,12.9-13,18-3.09,2.06-17.45,9.63-20,10,.56-3.02-1.53-1.94-3.45-2-77.33-2.59-159.44-.98-237.06-.02-1.69.02-4.45-.64-5.49,1.02-.42.24-.66.7-1,1-8.43,6.53-15.13,14.82-23,22-2.18,2.09-4.33,5.56-6.35,7.65s-6.33,3.59-6.65,7.35c-4.64,2.28-11.74,6.22-16,7h-12c.58-3.18-1.59-1.67-3.43-2.02-3.12-.59-8.48-1.63-11.32-2.69-1.23-.46-1.35-2.74-4.25-2.29-.31-.35-.68-.66-1-1-6.34-6.68-13.57-13.92-14.94-23.56-.67-4.7.84-9.77-1.06-14.44h-175.5c-1.53,0-6.09-3.09-7.5-1-11.33-3.88-20.56-13.54-26-24-.15-.92.22-2.22,0-3l-.92-279.57c.3-1.99-1.92-1.26-2.08-1.43-.12-.12.45-1.72-.66-2.02l-15.69-1.06c-1.1-2.82-4.24-2.84-5.65-3.92-4.64-3.56-4.59-4.12-7-9,.15-2.06-1.44-3.59-2-5-.11-.27-.89-.6-1-1v-64c.53-3.65,2.51-6.89,4.58-9.92,8.55-12.55,28.87-37.89,39.42-48.08,2.91-2.81,9.25-9,13.5-9h16l1.55-3.45-.04-164.04c.84-8.42,4.27-14.98,8.99-21.51.28-.38.57-.81,1-1,2.2-.94,3.49-2.39,5-4,2.38-2.55,2.24-1.97,6-3,2.49-.68,6.26-2.07,9.43-2.07,55.13,0,85.82-1.38,128.57.07ZM587.06,113.04c-62.72,0-158.7-1-238.01-.01-1.69.02-4.45-.64-5.49,1.02-9.56-.77-15.3-6.44-21.53-12.98-1.25-1.31-1.78-3.28-2.47-4.02s-1.37-1.33-2-2c-.32-.34-.68-.65-1-1-.28-1.8-2.72-4.21-3.96-5.52-3.43-3.63-7.12-7.4-11.04-10.48-.37-.29-.78-.63-1-1-1.67-2.85-4.55-5.11-7.44-5.06-36.85,2.54-108.1-.17-116.06-.17-10.71,0-12.99,11.06-12.99,13.96,0,19.02-.05,210.31-.05,210.31,2.82,4.35,6.4-8.54,6.99-10.08,12.44-32.51,29.25-77.07,37.84-110.17.5-1.93,2.1-6.46,2.77-8.39,3.51-10.05,6.45-18.4,21.93-18.4,87.74,0,364-.5,364-.5v-25c0-3.03-3.34-5.95-5.62-7.85-1.26-1.05-1.79-1.61-3.46-2.22,0,0-1.05-.43-1.42-.43ZM191.37,297.05h407.69s-1.5-2-1.5-2l3.1-.6c1.11-4.59,3.12-9.84,3.9-14.4.11-.62-.09-1.36,0-2,1.6-.94,1.62-2.44,2-4,1.9-.65,2.01-2.41,2.52-3.98,9.66-29.93,16.35-60.92,26.3-90.78.36-2.31-.11-5.22-2.73-5.8,0,0-305.49.05-398.13.05-.71,0-.77.44-1.07.84s-.89,2.67-.89,2.67l-41.19,120ZM113.56,295.04h26l-.11-21.89c-3.11-.09-8.09-.82-10.61,1.19-4.63,3.71-10.82,15.79-15.29,20.7ZM679.56,295.04l-16.25-21.25c-3.81-.96-29.96-1.42-30.86-.15l-5.89,21.4h53ZM94.56,320.04v1c-2.16,1.56-2.66,1.4-3.05,4.45-1.47,11.54-.12,30.7.03,43.06.02,1.69-.64,4.45,1.02,5.49.11.69.06,1.41.49,2.02l1.51.98h603c1.32,1.75,2.46-1.78,4-3,.04-.03.95,1.75,1,.5l-.47-52.56c-.63-1.03-1.72-.7-2.53-.94-.28-.08-.66.05-1,0v-1H94.56ZM90.56,373.04v-49h-1v49h1ZM696.56,378.04H95.56v1h601v-1ZM125.56,680.04c2.56,3.8,9.28,5.37,11.16,8.88.94.65,1.66-.87,1.84-.88.66-.03,1.33,0,2,0-1.78,2.71-.98,1.9,1.49,2,58.17,2.33,117.8-1.79,176.12.06,1.35.22,1.64-.35,2.4-1.06.42-.39.59-1.63,1-2,24.94-22.5,47.53-48.4,72.05-71.44,2.28-2.37.36-3.92-.05-5.56v-17c10.03-40.44,44.9-63.26,86.01-52.51,24.86,15.24-10.11,33.47-18.86,47.23-.57,2.11,2.74,11.9,4.45,13.19,1.25.94,14.21,5.12,15.38,4.63,10.47-8.82,18.77-22.24,30.79-28.34,20.97.05,18.23,34.7,14.51,48.59-6.36,23.71-30.17,45.37-54.89,48.11-6.46.72-15.56-1.12-21.37.67-1.28.39-8.89,8.07-10.38,9.58-1.1,1.11-3.16,2.58-.64,3.86-.16.02-4.19,1.31-2.5,2h213.04s3.45-2,3.45-2c.33-.03.67.04,1,0,7.91-1.08,14.89-8.09,16-16,.13-.94-.07-2.02,0-3l2,2.5.08-268.07c.3-1.99-1.92-1.27-2.08-1.43s.56-2.39-1.43-2.08l-545.43.22-1.19,5.32v264.08s4.05,10.46,4.05,10.46ZM423.56,582.04c-1.66,2.4-2.78,4.36-4,7-3.39,7.35-3.7,11.04-2.99,19.49.29,3.4,2.1,6.58,2.08,10.02-.06,9.86-19.78,22.1-25.08,30.49-.33.34-.67.66-1,1l-5.65,4.35-8.35,9.65c-.33.34-.67.67-1,1l-31,31c-.33.34-.68.66-1,1-6.59,5.91-13.55,10.48-13.41,20.15.02,1.55-.2,4.6,2.41,3.85.3,1.66.56,1.81,1,3,3.28,8.74,11.78,12.2,20.73,9.23,7.06-2.34,30.85-28.32,37.77-35.23.46-.46,3.5-2.58,1.5-3,.67-.66,1.33-1.33,2-2,.42,2,2.54-1.04,3-1.5,3.83-3.83,7.78-7.57,11.53-11.47,2.46-2.56,5.71-5.97,7.47-9.03.66-.67,1.34-1.34,2-2s1.34-1.33,2-2c.33-.33.67-.67,1-1s.67-.67,1-1,.67-.67,1-1,.67-.67,1-1,.67-.67,1-1c.55-.55,1.45-1.45,2-2,.66-.66,1.36-1.34,2-2l10-9c7.55-2.16,12.34.7,19.45,1.04,4,.19,6.03-.51,9.55-1.04,14.04-2.12,29.3-13.75,32-28,.28-1.5,2.28-6.95,0-7-1.57-.03-10.75,11.15-13.65,12.85-4.49,2.63-9.35,2.24-14.35,2.15-9.44-2.79-24.07-6.04-30-14-.85-11.23-11.88-25.03-5.01-35.51,1.97-3,7.36-6.92,10.06-9.97.77-.86,4.41-4.56,3.96-5.52-.99-2.08-4.3-.41-6,0-1-1.91-3.28-.85-4.72-.23-7.15,3.1-17.79,10.62-20.28,18.23Z"/>
      <path class="cls-3" d="M716.56,394.04c-.98,3.35-6.59,5.28-10,7-3.01.87-10.29.29-12,2v262c.76,3.39-.55,6.32-1,9l-1.04-272.33c.53-2.27,8.38-1.4,10.44-1.77,6-1.07,8.73-2.57,13.6-5.9Z"/>
      <path class="cls-3" d="M66.56,380.04c-.14-.52.06-1.35,0-2-.53-6.09,1.24-13.27-1-19,0-.67,0-1.33,0-2,1.74-1.36.97-4.81,1-7,.02-1.33,0-2.67,0-4,.03-6.31-.15-12.69,0-19,.02-.67-.02-1.33,0-2,.06-1.99-.14-4.02,0-6,.07-.98-.13-2.07,0-3v64Z"/>
      <path class="cls-3" d="M76.56,395.04c1.41,1.08,4.55,1.1,5.65,3.92l15.69,1.06c1.11.29.54,1.9.66,2.02.17.17,2.39-.56,2.08,1.43l.92,279.57c-.96-3.38-3.31-7.31-3.04-11.46l.04-269.54-13-1c-3.48-1.09-8.54-1.62-9-6Z"/>
      <path class="cls-1" d="M92.56,374.04c-1.5-9.68,1.11-22.9,0-33h608c.63,10.48-1.3,22,1,32v1c-1.54,1.22-2.68,4.75-4,3H94.56l-1.51-.98c-.43-.61-.38-1.33-.49-2.02Z"/>
      <path class="cls-7" d="M692.56,320.04l.5.98.5-.98c1,.01,2.01-.05,3,0,.32,1,1.16.88,2,1,.34.05.72-.08,1,0,1.9.95,1.93,1.38,2.07,3.41,1.09,15.71-.95,32.75-.07,48.59-2.3-10-.37-21.52-1-32H92.56c1.11,10.1-1.5,23.32,0,33-1.66-1.04-1-3.79-1.02-5.49-.15-12.36-1.51-31.52-.03-43.06.39-3.05.89-2.89,3.05-4.45.38-.27.68-.66,1-1,198.96,1.21,398.04-1.61,597,0Z"/>
      <path class="cls-1" d="M679.56,295.04h-53l5.89-21.4c.9-1.27,27.05-.81,30.86.15l16.25,21.25Z"/>
      <path class="cls-3" d="M698.56,320.04c-.66-.02-1.34.03-2,0-.99-.05-2,.01-3,0-.33,0-.67,0-1,0-198.96-1.61-398.04,1.21-597,0h-1,604Z"/>
      <rect class="cls-3" x="95.56" y="378.04" width="601" height="1"/>
      <path class="cls-1" d="M113.56,295.04c4.47-4.9,10.66-16.99,15.29-20.7,2.52-2.02,7.49-1.29,10.61-1.19l.11,21.89h-26Z"/>
      <path class="cls-3" d="M699.56,321.04c.81.23,1.9-.09,2.53.94l.47,52.56c-.05,1.25-.96-.53-1-.5v-1c-.88-15.85,1.16-32.89.07-48.59-.14-2.02-.17-2.45-2.07-3.41Z"/>
      <rect class="cls-3" x="89.56" y="324.04" width="1" height="49"/>
      <path class="cls-1" d="M698.56,320.04v1c-.84-.12-1.68,0-2-1,.66.03,1.34-.02,2,0Z"/>
      <g>
        <path class="cls-3" d="M327.56,750.04c2.9-.45,3.02,1.84,4.25,2.29,2.84,1.06,8.2,2.09,11.32,2.69,1.84.35,4.01-1.16,3.43,2.02h-4c-4.12-.7-11.1-2.38-14.35-4.94-1.06-.84-.53-1.91-.65-2.06Z"/>
        <path class="cls-6" d="M454.56,564.04c-4.68,6.66-16.87,13.43-17.92,21.59-.69,5.37,5.61,24.96,8.92,29.41,5.93,7.96,20.56,11.21,30,14,1.66.49,2.6,1.97,5.54,2.04,8.78.23,16.85-11.32,22.46-17.04,2.28.05.28,5.5,0,7-6.33,15.01-16.7,22.88-32,28-3.52.53-5.55,1.24-9.55,1.04-7.11-.35-11.9-3.2-19.45-1.04-3.24.93-7.36,6.29-10,9-.64.66-1.34,1.34-2,2l-2,2c-.33.33-.67.67-1,1l-1,1c-.33.33-.67.67-1,1l-1,1c-.33.33-.67.67-1,1l-2,2c-.66.66-1.34,1.33-2,2-7.31,7.33-14.65,14.67-22,22-.67.67-1.33,1.34-2,2-7.18,7.15-30.2,33.14-37.27,36.23-8.11,3.55-18.74.82-22.73-7.23-.44-1.19-.7-1.34-1-3-2.18-12.06,3.44-16.09,11-24,.32-.34.67-.66,1-1,10.09-10.45,20.75-20.65,31-31,.33-.33.67-.66,1-1,4.64-4.68,9.36-9.3,14-14,.33-.34.67-.66,1-1,5.13-5.21,22.27-19.59,24.77-24.73,3.03-6.2-.95-15.96-.85-22.76.06-4.08,2.23-8.33,2.08-12.51,1.22-2.64,2.34-4.6,4-7,6.28-9.05,14.07-15.38,25-18,1.7-.41,5.01-2.08,6,0Z"/>
        <path class="cls-3" d="M454.56,564.04c.46.96-3.19,4.66-3.96,5.52-2.7,3.04-8.09,6.96-10.06,9.97-6.87,10.49,4.16,24.28,5.01,35.51-3.31-4.45-9.61-24.03-8.92-29.41,1.05-8.17,13.24-14.94,17.92-21.59Z"/>
        <path class="cls-3" d="M393.56,649.04c5.3-8.38,25.03-20.63,25.08-30.49.02-3.44-1.79-6.62-2.08-10.02-.71-8.45-.4-12.14,2.99-19.49.14,4.18-2.02,8.43-2.08,12.51-.09,6.8,3.88,16.56.85,22.76-2.5,5.13-19.64,19.52-24.77,24.73Z"/>
        <path class="cls-3" d="M335.56,724.04c3.99,8.05,14.62,10.79,22.73,7.23,7.06-3.09,30.09-29.09,37.27-36.23,2,.42-1.04,2.54-1.5,3-6.92,6.92-30.71,32.9-37.77,35.23-8.95,2.96-17.45-.49-20.73-9.23Z"/>
        <path class="cls-3" d="M334.56,721.04c-2.61.75-2.39-2.3-2.41-3.85-.13-9.67,6.82-14.24,13.41-20.15-7.56,7.91-13.18,11.94-11,24Z"/>
        <path class="cls-3" d="M475.56,629.04c5,.09,9.86.48,14.35-2.15,2.9-1.7,12.08-12.88,13.65-12.85-5.62,5.73-13.69,17.27-22.46,17.04-2.93-.08-3.87-1.55-5.54-2.04Z"/>
        <path class="cls-3" d="M471.56,649.04c15.3-5.12,25.67-12.99,32-28-2.7,14.25-17.96,25.88-32,28Z"/>
        <path class="cls-3" d="M448.56,564.04c-10.93,2.62-18.72,8.95-25,18,2.49-7.61,13.12-15.13,20.28-18.23,1.44-.62,3.72-1.68,4.72.23Z"/>
        <path class="cls-3" d="M442.56,649.04l-10,9c2.64-2.71,6.76-8.07,10-9Z"/>
        <path class="cls-3" d="M387.56,735.04c7.87-7.18,14.57-15.47,23-22-6.58,5.77-13.42,14.24-19.97,20.57-1.1,1.07-2.8,1.21-3.03,1.43Z"/>
        <path class="cls-3" d="M378.56,664.04l8.35-9.65,5.65-4.35c-4.64,4.7-9.36,9.32-14,14Z"/>
        <path class="cls-3" d="M430.56,660.04c-.55.55-1.45,1.45-2,2l2-2Z"/>
        <path class="cls-3" d="M419.56,671.04c-1.76,3.05-5.01,6.47-7.47,9.03-3.75,3.9-7.71,7.64-11.53,11.47-.46.46-2.58,3.5-3,1.5,7.35-7.33,14.69-14.67,22-22Z"/>
        <path class="cls-3" d="M346.56,696.04l31-31c-10.25,10.35-20.91,20.55-31,31Z"/>
        <path class="cls-3" d="M426.56,664.04l1-1c-.33.33-.67.67-1,1Z"/>
        <path class="cls-3" d="M424.56,666.04l1-1c-.33.33-.67.67-1,1Z"/>
        <path class="cls-3" d="M421.56,669.04l2-2c-.66.67-1.34,1.33-2,2Z"/>
      </g>
      <path class="cls-1" d="M94.56,321.04v-1h1c-.32.34-.62.73-1,1Z"/>
      <path class="cls-1" d="M692.56,320.04c.33,0,.67,0,1,0l-.5.98-.5-.98Z"/>
      <g>
        <path class="cls-1" d="M669.56,402.04c.02,9.32-.03,18.68,0,28,0,.33,0,.67,0,1-.45,1.01-1.48,1.81-1.07,3.38.76,77.37-.76,154.77.06,232.13.02,1.69-.64,4.45,1.02,5.49-1.11,7.91-8.09,14.92-16,16h-206c-2.89.06-6.25-.32-9,0-2.52-1.28-.46-2.75.64-3.86,1.5-1.5,9.1-9.18,10.38-9.58,5.81-1.79,14.91.05,21.37-.67,24.71-2.75,48.53-24.4,54.89-48.11,3.72-13.88,6.46-48.54-14.51-48.59-12.03,6.11-20.32,19.52-30.79,28.34-1.17.49-14.13-3.69-15.38-4.63-1.7-1.28-5.02-11.08-4.45-13.19,8.75-13.76,43.72-31.99,18.86-47.23-41.1-10.75-75.97,12.07-86.01,52.51-1.51,6.07-1.47,11.13,0,17,.41,1.64,2.32,3.19.05,5.56-24.52,23.04-47.11,48.94-72.05,71.44l-183,1c-.18,0-.9,1.52-1.84.88-1.88-3.51-8.6-5.08-11.16-8.88-.51-.76-1.69-4.76-2-6,1.66-1.04,1-3.79,1.02-5.49.83-79.15-.65-158.37-.03-237.51l-.99,3.48c-.03,77.38,0,154.75.07,232.13,0,1.83-1.07,3.2-1.07,3.38v-268.01s547,0,547,0ZM469.56,437.04c.56-3.03-1.53-1.92-3.45-2-47.25-1.87-95.67,1.4-143.04,0l1.5,2c-.66.04-1.35-.07-2,0-14.16,1.43-23.45,11.8-29,24-3.37,7.41-2.01,18.17-2,26.51,0,.89-.58,4.87,1,2.49.18,1.22,3.04,8.98,4,11,5.74,12.12,13.71,15.03,25.24,19.08,2.7.95-1.37,1.18,4.76.92,24.23-1.02,48.74.76,73,0-.18,0-1.54,1.07-3.38,1.07-21.45.02-43.81-.96-65.13-.07-1.23.05-3.71-.76-3.49,1h139c.22-1.76-2.26-.95-3.49-1-18.38-.76-37.63.09-56.13.07-1.84,0-3.2-1.07-3.38-1.07,20.62-1.4,43.68,1.88,64,0,16.12-1.49,26.64-12.55,32-27,4.19-11.28,3.62-31.16-4-41-5.91-7.64-14.03-14.8-24-16-.65-.08-1.34.05-2,0Z"/>
        <path class="cls-3" d="M125.56,680.04l-4.04-10.46v-264.08s1.18-5.32,1.18-5.32l545.43-.22c1.99-.3,1.27,1.92,1.43,2.08s2.39-.56,2.08,1.43l-.08,268.07-2-2.5c.18-2.63-.07-5.35,0-8,1.65-1.26,1.65-5.74,0-7,.03-1.67-.02-3.33,0-5,1.58-.66,1.58-4.34,0-5,.02-1.67-.01-3.33,0-5,1.2-1,1.2-2,0-3,.03-4.32-.02-8.68,0-13,1.61-.95,1.64-4.99,0-6,.08-19.98-.03-40.02,0-60,1.58-.66,1.58-4.34,0-5,.02-13.98.01-28.02,0-42,1.39-1.26,1.36-2.77,0-4,0-3.66,0-7.34,0-11,1.36-1.23,1.39-2.74,0-4-.02-12.65.03-25.35,0-38,1.71-2.54,1.66-8.66,0-11,0-2.33.01-4.67,0-7l.68-.8-.68-1.2c0-.67,0-1.33,0-2,.18-.39.59-.52,0-1-.03-9.32.02-18.68,0-28H122.56s0,268,0,268c-.03,1.95.66,2.61,1,4,.31,1.24,1.49,5.24,2,6Z"/>
        <path class="cls-3" d="M447.56,688.04c61.1-1.19,122.4.4,183.54-.05,6.96-.05,14.25.68,21.46.05l-3.45,2h-213.04c-1.7-.69,2.34-1.98,2.5-2,2.75-.32,6.11.06,9,0Z"/>
        <path class="cls-3" d="M320.56,689.04c-.76.71-1.05,1.28-2.4,1.06-58.32-1.85-117.95,2.27-176.12-.06-2.46-.1-3.26.71-1.49-2,56.05-.4,116.98-2.7,172.54-.05,2.59.12,4.94.65,7.46,1.05Z"/>
        <path class="cls-7" d="M669.56,433.04c0,.67,0,1.33,0,2,.01,2.33,0,4.67,0,7,.01,3.66,0,7.34,0,11,.03,12.65-.02,25.35,0,38,0,1.33,0,2.67,0,4,0,3.66,0,7.34,0,11,0,1.33,0,2.67,0,4,.01,13.98.02,28.02,0,42,0,1.67,0,3.33,0,5-.03,19.98.08,40.02,0,60,0,2,0,4,0,6-.02,4.32.03,8.68,0,13,0,1,0,2,0,3-.01,1.67.02,3.33,0,5s.02,3.33,0,5,.03,3.33,0,5c-.04,2.33.06,4.67,0,7-.07,2.65.18,5.37,0,8-.07.98.13,2.06,0,3-1.66-1.04-1-3.79-1.02-5.49-.81-77.36.71-154.76-.06-232.13-.41-1.57.62-2.37,1.07-3.38,0,.67,0,1.33,0,2Z"/>
        <path class="cls-7" d="M653.56,688.04c-.33.04-.67-.03-1,0-7.21.63-14.5-.1-21.46-.05-61.14.44-122.44-1.15-183.54.05h206Z"/>
        <path class="cls-7" d="M321.56,687.04c-.41.37-.58,1.61-1,2-2.52-.4-4.86-.92-7.46-1.05-55.57-2.65-116.5-.35-172.54.05-.67,0-1.34-.03-2,0l183-1Z"/>
        <path class="cls-7" d="M393.56,610.04c-1.47-5.87-1.51-10.93,0-17v17Z"/>
        <path class="cls-7" d="M123.56,674.04c-.34-1.39-1.03-2.05-1-4,0-.18,1.07-1.55,1.07-3.38-.07-77.38-.1-154.75-.07-232.13l.99-3.48c-.62,79.14.86,158.36.03,237.51-.02,1.69.64,4.45-1.02,5.49Z"/>
        <path class="cls-5" d="M669.56,431.04c0-.33,0-.67,0-1,.59.48.18.61,0,1Z"/>
        <path class="cls-5" d="M669.56,453.04c0-3.66.01-7.34,0-11,1.66,2.34,1.71,8.46,0,11Z"/>
        <path class="cls-5" d="M669.56,661.04c.06-2.33-.04-4.67,0-7,1.65,1.26,1.65,5.74,0,7Z"/>
        <path class="cls-5" d="M669.56,623.04c0-2,0-4,0-6,1.64,1.01,1.61,5.05,0,6Z"/>
        <path class="cls-5" d="M669.56,557.04c0-1.67,0-3.33,0-5,1.58.66,1.58,4.34,0,5Z"/>
        <path class="cls-5" d="M669.56,649.04c.02-1.67-.02-3.33,0-5,1.58.66,1.58,4.34,0,5Z"/>
        <path class="cls-5" d="M669.56,495.04c0-1.33,0-2.67,0-4,1.39,1.26,1.36,2.77,0,4Z"/>
        <path class="cls-5" d="M669.56,510.04c0-1.33,0-2.67,0-4,1.36,1.23,1.39,2.74,0,4Z"/>
        <path class="cls-5" d="M669.56,639.04c0-1,0-2,0-3,1.2,1,1.2,2,0,3Z"/>
        <path class="cls-5" d="M669.56,435.04c0-.67,0-1.33,0-2l.68,1.2-.68.8Z"/>
        <g>
          <path class="cls-5" d="M322.56,437.04h149c9.97,1.2,18.09,8.36,24,16,.64,2.49,2.24,4.56,3,7l-.02,26.51,1.02,5.49c-.02.67.01,1.33,0,2-5.36,14.45-15.88,25.51-32,27h-141c-6.13.26-2.07.02-4.76-.92-11.53-4.05-19.5-6.95-25.24-19.08l-1.98-11.52c-.75-8.24,1.36-17.54-1.02-25.48.05-1-.03-2,0-3,5.55-12.2,14.84-22.57,29-24ZM324.56,461.04c-3.36,2.38-5.5,1.98-8,7-1.63,3.28-1.71,18.69,0,22,.56,1.08,2.97,3.72,4,5,.04.05-1.27.55-.06,1.4,1.76,1.24,5.23,2.58,7.49,2.66l137.09-.04,8.47-3.11c-.07-.44-1.01-.85-.99-.91.07-.28,2.76-4.7,3-5,.09-.12,1.39.29,1.78-.17.63-.74.35-16.67.22-19.34-.12-2.45.72-3.27-2-1.49-.5-4.25-4.3-8.54-9-8l1.5-2h-142.87c-1.27-.21-.35,1.81-.63,2Z"/>
          <path class="cls-7" d="M324.56,437.04l-1.5-2c47.37,1.41,95.79-1.87,143.04,0,1.93.08,4.01-1.03,3.45,2-9.48-.71-20.31.09-30,0l-.5-.98-.5.98c-36.35-.3-78.24-2.34-114,0Z"/>
          <path class="cls-3" d="M324.56,437.04c35.76-2.34,77.65-.3,114,0,.33,0,.67,0,1,0,9.69.09,20.52-.71,30,0,.66.05,1.35-.08,2,0h-149c.65-.07,1.34.04,2,0Z"/>
          <path class="cls-7" d="M403.56,521.04c.18,0,1.54,1.07,3.38,1.07,18.49.02,37.75-.84,56.13-.07,1.23.05,3.71-.76,3.49,1h-139c-.22-1.76,2.26-.95,3.49-1,21.32-.89,43.68.09,65.13.07,1.84,0,3.2-1.07,3.38-1.07,1.33,0,2.67,0,4,0Z"/>
          <path class="cls-3" d="M467.56,521.04c-20.32,1.88-43.38-1.4-64,0-1.33,0-2.67,0-4,0-24.26.76-48.77-1.02-73,0h141Z"/>
          <path class="cls-3" d="M296.56,501.04c-.96-2.02-3.82-9.78-4-11-.72-4.88-.5-17.84,0-23,.47-.14.91-.53,1-1,.11-.57-.03-1.34,0-2,2.38,7.94.26,17.25,1.02,25.48l1.98,11.52Z"/>
          <path class="cls-7" d="M499.56,494.04c.01-.67-.02-1.33,0-2s-.11-1.44,0-2c.48-.11.93-.53,1-1,.45-3.08,0-7.66,0-11,0-1,.04-2,0-3-.06-1.65.13-3.36,0-5-.03-.33.03-.67,0-1-.29-2.73-1.17-6.33-2-9-.76-2.44-2.36-4.51-3-7,7.62,9.84,8.19,29.72,4,41Z"/>
          <path class="cls-7" d="M293.56,464.04c-.03.66.11,1.43,0,2-.47.1-.96.55-1,1-.5,5.16-.72,18.12,0,23-1.58,2.37-1-1.6-1-2.49,0-8.34-1.37-19.1,2-26.51-.03,1,.05,2,0,3Z"/>
          <path class="cls-6" d="M324.56,461.04h142c4.7-.54,8.5,3.75,9,8,.76,6.53-.56,14.31,0,21-.24.3-2.93,4.72-3,5l-6.45,2.05c-45.36-2.57-94.14,3.23-139.1,0-2.57-.18-4.32-.63-6.45-2.05-1.03-1.28-3.44-3.92-4-5v-22c2.5-5.02,4.64-4.62,8-7Z"/>
          <path class="cls-3" d="M472.56,495.04c-.02.07.92.48.99.91l-8.47,3.11-137.09.04c-2.26-.09-5.73-1.42-7.49-2.66-1.21-.86.1-1.35.06-1.4,2.13,1.42,3.88,1.87,6.45,2.05,44.96,3.23,93.73-2.57,139.1,0l6.45-2.05Z"/>
          <path class="cls-3" d="M324.56,461.04c.28-.2-.64-2.21.63-2.02h142.87s-1.5,2.02-1.5,2.02h-142Z"/>
          <path class="cls-3" d="M500.56,469.04l-.98.5.98.5c.13,1.64-.06,3.35,0,5-1.5.14-1.5,2.86,0,3,0,3.34.45,7.92,0,11-.47.14-.9.53-1,1-.11.56.02,1.35,0,2l-1.02-5.49.02-26.51c.83,2.67,1.71,6.27,2,9Z"/>
          <path class="cls-3" d="M475.56,469.04c2.72-1.79,1.88-.97,2,1.49.13,2.67.41,18.61-.22,19.34-.4.46-1.69.05-1.78.17-.56-6.69.76-14.47,0-21Z"/>
          <path class="cls-3" d="M316.56,490.04c-1.71-3.31-1.63-18.72,0-22v22Z"/>
          <path class="cls-1" d="M439.56,437.04c-.33,0-.67,0-1,0l.5-.98.5.98Z"/>
          <path class="cls-5" d="M292.56,467.04c.04-.45.53-.9,1-1-.09.47-.53.86-1,1Z"/>
          <path class="cls-5" d="M500.56,478.04c-1.5-.14-1.5-2.86,0-3,.04,1,0,2,0,3Z"/>
          <path class="cls-5" d="M500.56,470.04l-.98-.5.98-.5c.03.33-.03.67,0,1Z"/>
          <path class="cls-5" d="M499.56,490.04c.1-.47.53-.86,1-1-.07.47-.52.89-1,1Z"/>
        </g>
      </g>
    </g>
  </g>
</svg>